# xmcd
#
# Track frame offsets:
#	150
#	16597
#	33907
#	58820
#	80280
#	96880
#	117225
#	134172
#	154857
#	169737
#	193825
#	212235
#	254902
#
# Disc length: 4346 seconds
# Revision: 0
# Processed by: cddbd v1.5.2PL0 Copyright (c) Steve Scherf et al.
# Submitted via: dBpowerAMP V12.0
#
DISCID=b910f80d
DTITLE=Gary Barlow - Twelve Months, Eleven Days
DYEAR=1999
DGENRE=Pop
TTITLE0=For All That You Want
TTITLE1=Arms Around Me
TTITLE2=Lie to Me
TTITLE3=Fast Car
TTITLE4=Stronger
TTITLE5=All That I've Given Away
TTITLE6=Wondering
TTITLE7=Don't Need a Reason
TTITLE8=Before You Turn Away
TTITLE9=Walk
TTITLE10=Nothing Feels the Same
TTITLE11=Yesterday's Girl
TTITLE12=DATA
EXTD=
EXTT0=
EXTT1=
EXTT2=
EXTT3=
EXTT4=
EXTT5=
EXTT6=
EXTT7=
EXTT8=
EXTT9=
EXTT10=
EXTT11=
EXTT12=
PLAYORDER=
